<svg version="1.1" id="Graphics_1_" xmlns="http://www.w3.org/2000/svg" x="0" y="0" viewBox="0 0 246.8 115.3" xml:space="preserve"><style>.st0{fill:#151f6d}</style><path class="st0" d="M227.2 11.9c-7.9 0-14.3 1.8-19.1 4.1-3-2.5-7.5-4.2-14.2-4.2-4 0-8.6.6-14.1 1.7C178 5.7 171.9 0 159.3 0c-9.5 0-17.3 4.5-21.9 8-1.9-.9-4.4-1.6-7.6-1.6-3.4 0-11.8.8-18.3 5.5h-2.1c-5.8 0-11.2.8-16.3 2.5C88 7.8 80 1.4 66.7 1.4c-5.5 0-10.1 1.4-15 4.5-4.2-3-10.2-4.5-15.7-4.5-19.3 0-36 17.5-36 47.7 0 24.6 16.4 43.2 37.8 43.2 10.6 0 19-3.6 25.2-9.8-2.1 3.1-3.3 7-3.3 10.9 0 13 13 21.9 33.7 21.9 25.8 0 39.2-11.6 43-28.8 3.1 3.6 8.7 5.3 15.2 5.3 4.7 0 9-2 12.6-3.8-.1 1.1-.1 3.8-.1 4.9 0 11.1 7.9 22.5 27.7 22.5 42.6 0 55-67.8 55-83.6 0-11.2-5.9-19.9-19.6-19.9z"/><path d="M87.7 16.8c-11.9 6.7-15.8 17.6-17.2 32-1.8 18.6-9.7 37.7-32.7 37.7-17.8 0-32-15.7-32-37.4 0-27.4 14.6-41.9 30.1-41.9 4.5 0 9.8 1.2 13 3.9-8.6 8.3-12.8 22.7-12.8 38.7 0 1 .7 1.8 1.7 1.8s1.8-.8 1.8-1.8c0-24.2 10-42.6 27.1-42.6 9.1 0 16.6 4 21 9.6zm92.8 2.5c.2 12.5-6.5 27.9-6.5 42.3 0 12 5 18.4 19.9 18.4 4.1 0 6.2-1.3 7.3-1.3s1.4.7 1.4 1.2c0 2.2-4.3 3.6-8.8 3.6-8.1 0-15.7-2.3-18.9-5.6-9.9 6.9-10 31.7 17 31.7 37.3 0 49.2-62.9 49.2-77.9 0-10.1-5.6-14-13.8-14-7.3 0-11.8 1.8-16.1 4 3.9 6.9-.4 21-4 34.2-.5 1.8-1.3 2.5-2 2.5-.9 0-1.8-1.1-1.4-2.8 2.6-9.4 5.4-21.6 5.2-26.2-.4-9.6-6.4-14.8-28.5-10.1zM98.1 66.4c-.3.5-.5.9-.5 1.4 0 1.6 1.9 2.4 6.2 2.4 6.9 0 14.3-.3 22.7-5.3 9.4 11.2 10.1 44.7-33 44.7-17 0-28-6.4-28-16.1 0-5.7 3.2-10.5 8-11.9 4.5 3.6 10.8 5.9 20.7 5.9 3.6 0 10.2-.3 10.2-2.9 0-.6-.4-1.3-1.5-1.3-1.7 0-3.5.8-8.6.8-11.6 0-22.7-3.9-22.7-13.4 0-4.1 2.3-9.2 9.7-12.2-2.8-3.5-4-7.8-4-12.5 0-16.8 10.9-28.3 32.2-28.3 3.7 0 7 .3 9.8 1 .3-1.5.3-3.1.1-4.4 2.8-1.3 7.6-2.1 10.3-2.1 6.6 0 9.6 3.8 9.6 9.1 0 3.7-1.9 6.7-4.7 8.8 1.1 2.6 1.5 5.4 1.5 8.4 0 15.7-10 28.2-32.2 28.2-2 0-4-.1-5.8-.3zm7.3-18.5c1 0 2-.6 2.3-1.9.8-2.9 1.3-4.7 1.9-7.8.2-1-.4-1.9-1.4-1.9s-2 .8-2.3 1.9c-.6 2.3-1.3 4.8-1.9 7.8-.2 1.1.4 1.9 1.4 1.9zm66.1-6c3.6-18.9 8.7-36.1-12.2-36.1-6.3 0-13.5 3.1-17.2 5.9 3.3 4.5 3.1 9.9 2.8 12.8-1.1 10.4-9.3 31.9-9.3 44 0 9.1 3.6 18.1 14.2 18.1 7.6 0 14.6-4.2 19.8-12.2-3.6-7.6-1.5-14.5 1.9-32.5z" fill="#fff"/><path class="st0" d="M236.8 83.2c0-2.7 2-4.7 4.7-4.7s4.7 2 4.7 4.7-2 4.7-4.7 4.7c-2.8 0-4.7-2-4.7-4.7zm8.1 0c0-2-1.4-3.4-3.4-3.4s-3.4 1.4-3.4 3.4 1.4 3.4 3.4 3.4 3.4-1.5 3.4-3.4zm-5.3 1.8v-3.5c0-.7.4-1 1-1h.9c1.2 0 2 .7 2 1.8 0 .5-.1.8-.6 1.1v.1c.3.5.5 1 .5 1.4 0 .6-.2.9-.8.9-.4 0-.6-.2-.8-.6-.1-.4-.3-1.3-.5-1.3 0 0-.1 0-.1.1v1c0 .5-.3.9-.8.9-.5-.1-.8-.4-.8-.9zm2.3-2.7c0-.3-.2-.5-.4-.5s-.3.1-.3.3v.4c0 .1.1.2.2.2.3 0 .5-.1.5-.4z"/></svg>