<svg version="1.1" id="Graphics" xmlns="http://www.w3.org/2000/svg" x="0" y="0" viewBox="0 0 443.3 278" xml:space="preserve"><style>.st2{fill:#e8e8e8}.st4{fill:#fff}.st5{fill:#aaa}.st6{fill:#06196f}</style><path d="M409.5 21.2c-2.4.2-3.8 2.4-3.1 4.8.2.8.3 1.2.6 2-22 .5-39-20.4-61.3-19.5-101.4 8.9-192.9 16.9-294.3 25.8h0c-1.3.1-2.7.4-4 .8-2.4.7-4.7 1.7-6.9 3.1-1.9 1.2-3.8 2.7-5.4 4.4-5.6 5.2-8.4 7.8-13.9 13-1 1-2.2 1.6-3.5 1.7-3.5.3-6.7 3.5-7.1 7.2-5.5 62 .1 122.4 16.4 182.5.6 2.2 2.3 4.1 4.4 5.1 1.2.6 2.6.9 3.9.8.6-.1 1.3 0 1.9.2.6.2 1.3.5 1.8.9 4.8 3.1 7.2 4.6 12 7.7 1.6 1 2.4 1.6 4 2.6l.9.6c5.2 3.4 11.1 5.1 16.6 4.6h0c101.4-9.4 193-17.9 294.4-27.3 22.1-3 35.2-26.7 56.9-30.1-.1 1-.1 1.4-.2 2.4-.2 2.5 1.5 4.4 4 4.2 2.4-.2 4.7-2.5 4.9-5 5.8-64 0-126.7-17.4-188.5-.6-2.5-3.2-4.3-5.6-4z" fill="#06196f" stroke="#06196f" stroke-width="17.008" stroke-miterlimit="10"/><path d="M423.6 212.2c4.9-62.5-.8-123.6-17-184.1-21.9.5-38.9-20.4-61.2-19.5-101.5 8.8-193 16.8-294.4 25.7-5.8.6-11.7 3.5-16.4 8.2-5.6 5.2-8.4 7.8-13.9 13-1 1-2.2 1.6-3.5 1.7-3.5.3-6.7 3.5-7.1 7.2-5.3 62.1.2 122.6 16.6 182.6 1 3.5 4.7 6.2 8.3 5.8 1.3-.1 2.6.3 3.8 1.1 6.4 4.1 9.6 6.2 16 10.3 5.4 3.8 11.7 5.7 17.5 5.2 101.4-9.4 193-17.9 294.4-27.3 22.1-2.9 35.2-26.5 56.9-29.9z" fill="#00a9e0"/><path class="st2" d="M432.2 213.8c5.8-64 0-126.7-17.4-188.5-.7-2.5-3.3-4.3-5.7-4-2.4.2-3.8 2.4-3.1 4.8 16.9 61.9 22.7 124.6 17.3 188.5-.2 2.5 1.5 4.4 4 4.2 2.5-.3 4.7-2.5 4.9-5z"/><path d="M70.1 262.5c-5.8.5-12.2-1.4-17.6-5.2-6.4-4.1-9.6-6.2-15.9-10.4-1.1-.8-2.5-1.2-3.8-1.1-3.6.3-7.3-2.3-8.2-5.9.8 2.9 1.2 4.3 2 7.1 1 3.5 4.7 6.2 8.3 5.8 1.3-.1 2.6.3 3.8 1.1 6.4 4.1 9.6 6.2 16 10.3 5.4 3.8 11.7 5.7 17.5 5.2 101.4-9.4 193-17.9 294.4-27.3 22.1-3 35.2-26.7 56.9-30.1.1-1.4.2-2.1.3-3.4-21 3.3-35.7 23.8-56.7 26.2h-.3c-3.8.4-7.7.7-11.5 1.1-2.8.3-5.7.8-8.5.8-2.3 0-4.4-.4-6.6.6-.8.4-1.5.9-2.3 1.1-3 .7-5.9-2.6-8.9-1.9-1.8.4-3 2.1-4.3 3.5-1.3 1.4-3.2 2.7-4.9 1.9-1.4-.6-2.1-2.4-3.4-3.1-1.3-.7-2.9-.3-4 .6-1.4 1.1-2.2 3-3.9 3.6-1.8.6-3.8-.5-5.2-1.8-1.5-1.2-3-2.7-4.9-2.8-2-.1-3.7 1.5-5.1 3-1.4 1.5-2.8 3.2-4.8 3.6-2 .4-3.9-.5-5.8-1.2-3.3-1.3-6.7-.5-10.1-.2-4.2.4-8.4.8-12.7 1.2-8.2.8-16.3 1.5-24.5 2.3-14 1.3-27.9 2.6-41.9 3.9-13.5 1.2-27 2.5-40.5 3.7-12.1 1.1-14.3 1.4-26.5 2.5l-29.4 2.7c-6.6.6-13.1 1.2-19.7 1.8-2.5.3-4.9.5-7.3.8z" fill="#a0a8c8"/><path class="st2" d="M20.7 55.5c-1 1-2.2 1.6-3.5 1.7-3.5.3-6.7 3.5-7.1 7.2-5.3 62.1.2 122.6 16.6 182.6 1 3.5 4.8 6.2 8.3 5.8 1.3-.1 2.6.3 3.8 1.1 6.4 4.1 9.6 6.2 16 10.3-21.2-72.6-28-146.6-20-221.8-5.7 5.3-8.5 7.9-14.1 13.1z"/><path class="st4" d="M345.3 8.6C243.9 17.4 152.4 25.4 51 34.3c-5.8.6-11.7 3.5-16.4 8.2-5.6 5.2-8.4 7.8-13.9 13-1 1-2.2 1.6-3.5 1.7-3.5.3-6.7 3.5-7.1 7.2-.1 1.6-.2 2.4-.4 4 .3-3.7 3.5-6.9 7.1-7.2 1.3-.1 2.5-.7 3.5-1.7 5.6-5.2 8.3-7.8 13.9-13 4.6-4.7 10.5-7.7 16.4-8.2 101.9-8.9 193.9-16.9 295.7-25.8 21.9-.8 39.2 17.9 60.8 17.6-.2-.8-.3-1.1-.5-1.9-21.9.3-39-20.6-61.3-19.6z"/><path class="st5" d="M427.3 219c-2.4.2-4.2-1.7-4-4.2.4-4.3.6-6.5.9-10.8 3.6-.3 5.4-.5 9-.8-.4 4.3-.6 6.5-1 10.8-.2 2.5-2.5 4.8-4.9 5z"/><ellipse transform="rotate(-4.86 355.821 37.54)" class="st4" cx="355.8" cy="37.5" rx="21" ry="8.8"/><ellipse transform="rotate(-4.86 384.693 47.124)" class="st4" cx="384.7" cy="47.1" rx="9.1" ry="3.8"/><path class="st4" d="M414.9 25.2c-.7-2.5-3.3-4.3-5.7-4-2.4.2-3.8 2.4-3.1 4.8 3.1 11.3 5.8 22.6 8.1 34l9.1-.8c-2.5-11.3-5.3-22.7-8.4-34zm12.5 56.3l-9.2.8c.6 3.9 1.2 7.9 1.8 11.8l9.2-.8c-.5-3.9-1.1-7.8-1.8-11.8zm-406.7-26c-1 1-2.2 1.6-3.5 1.7-3.5.3-6.7 3.5-7.1 7.2-1 11.2-1.6 22.3-1.8 33.4 4.9-2.3 12.9-5.6 23.3-8.6.4-15.5 1.4-31.1 3.1-46.7l-14 13z"/><path class="st5" d="M26.7 247c1 3.5 4.8 6.2 8.3 5.8 1.3-.1 2.6.3 3.8 1.1 6.4 4.1 9.6 6.2 16 10.3-1.4-4.7-2.7-9.5-4-14.2-10.6-2.1-19.4-5.2-25.3-7.7.3 1.7.7 3.2 1.2 4.7z"/><path class="st6" d="M357.8 55.8c-11.1 1.1-19.7 4.5-26.1 8.3-4.6-3.1-11-4.8-20.4-3.9-5.6.5-11.9 2-19.4 4.3-3.7-10.7-13-17.9-30.6-16.2-13.2 1.3-23.6 8.6-29.5 14.2-2.8-1-6.4-1.6-10.8-1.2-4.7.5-16.4 2.7-24.8 10.2-1 .1-1.9.1-2.9.2-8.1.8-15.5 2.6-22.5 5.7-8.2-8.5-20.3-16.4-38.9-14.6-7.7.8-14 3.3-20.4 8.3-6.3-3.7-14.9-4.8-22.6-4.1C62 69.7 41 96.5 45.1 138.7c3.4 34.4 28.9 58.1 58.7 55.2 14.9-1.4 26.1-7.6 33.9-17.1-2.5 4.6-3.7 10.2-3.1 15.7 1.8 18.2 21.1 28.9 50.2 26 36.1-3.5 53.2-21.6 56.3-46.1 4.9 4.6 12.9 6.2 21.9 5.3 6.6-.6 12.4-4 17.1-7.1-.1 1.5.3 5.4.5 6.8 1.5 15.6 14.1 30.4 41.8 27.7 59.6-5.8 67.7-102.3 65.5-124.5-1.5-15.4-10.9-26.7-30.1-24.8z"/><path class="st4" d="M163.5 81.6c-15.7 11-19.8 26.7-19.7 47 0 26.3-8.4 54.1-40.6 57.2-24.9 2.4-46.9-17.6-49.9-47.9C49.6 99.5 68 77.3 89.7 75.2c6.3-.6 13.9.3 18.7 3.7-10.9 12.7-14.8 33.5-12.6 55.8.1 1.4 1.2 2.4 2.6 2.2 1.4-.1 2.3-1.3 2.2-2.7-3.3-33.8 8.2-60.9 32.1-63.2 12.8-1.2 23.8 3.4 30.8 10.6zm130.1-9.1c1.9 17.5-5.3 39.9-3.4 60 1.6 16.7 9.5 25.1 30.4 23.1 5.8-.6 8.5-2.7 10-2.9 1.5-.1 2 .8 2.1 1.4.3 3-5.5 5.6-11.8 6.2-11.4 1.1-22.2-1-27.3-5.3-12.9 11-9.6 45.7 28.1 42.1 52.2-5.1 60.3-94.7 58.2-115.6-1.4-14.2-9.7-18.8-21.2-17.7-10.3 1-16.3 4.1-22 7.8 6.3 9.1 2.3 29.4-.9 48.4-.4 2.5-1.4 3.6-2.5 3.7-1.2.1-2.7-1.2-2.3-3.7 2.3-13.6 4.6-30.9 3.8-37.4-1.8-13.3-11-19.8-41.2-10.1zm-109 77c-.4.7-.6 1.4-.6 2 .2 2.2 3 3 9.1 2.5 9.7-.9 19.9-2.4 31-10.5 14.7 14.4 20.3 61.2-40 67.1-23.8 2.3-40-5.2-41.3-18.7-.8-8 3.1-15.2 9.6-17.7 6.8 4.5 15.9 6.8 29.8 5.4 5.1-.5 14.2-1.8 13.8-5.4-.1-.9-.8-1.7-2.2-1.6-2.4.2-4.8 1.6-11.9 2.3-16.2 1.6-32.3-2.4-33.6-15.7-.6-5.7 1.9-13.2 12-18.3-4.3-4.5-6.6-10.3-7.3-16.9-2.3-23.5 11.4-41 41.2-43.9 5.2-.5 9.8-.5 13.9 0 .2-2.2 0-4.3-.4-6.2 3.8-2.2 10.3-3.9 14.1-4.3 9.2-1 13.9 4 14.7 11.4.5 5.1-1.7 9.6-5.4 13 1.8 3.4 2.9 7.3 3.3 11.5 2.1 21.9-10.1 40.8-41.2 43.8-3.2.1-6 .2-8.6.2zm7.8-26.8c1.4-.1 2.7-1.2 3-2.9.7-4.1 1.2-6.7 1.5-11.2.1-1.5-.8-2.5-2.2-2.4-1.4.1-2.7 1.4-3 2.9-.6 3.3-1.1 7-1.5 11.2-.2 1.5.8 2.6 2.2 2.4zm91.6-17.5c2.5-26.9 7.2-51.7-22-48.9-8.9.9-18.4 6.2-23.2 10.6 5.3 5.8 5.7 13.5 5.7 17.5-.1 14.6-8.6 45.8-7 62.8 1.2 12.7 7.5 24.8 22.3 23.3 10.6-1 19.8-7.9 26.1-19.7-6.2-10-4.2-19.9-1.9-45.6z"/><path class="st6" d="M380.9 154.1c-.4-3.8 2.1-6.9 6-7.2s6.9 2.1 7.2 6-2.1 6.9-6 7.2c-3.8.3-6.8-2.2-7.2-6zm11.4-1.1c-.3-2.7-2.5-4.6-5.2-4.3-2.7.3-4.6 2.5-4.3 5.2.3 2.7 2.5 4.6 5.2 4.3s4.5-2.5 4.3-5.2zm-7.2 3.2l-.5-4.9c-.1-.9.4-1.5 1.2-1.6l1.3-.1c1.7-.2 2.9.7 3 2.2.1.7-.1 1.1-.6 1.7-.1.1-.1.1 0 .2.5.7.8 1.3.9 1.9.1.8-.2 1.3-.9 1.4-.6.1-.9-.2-1.1-.8-.3-.6-.6-1.8-.9-1.7-.1 0-.1 0-.1.1l.1 1.3c.1.8-.3 1.3-1 1.3-.8.2-1.3-.2-1.4-1zm2.8-4.1c0-.4-.3-.7-.7-.6-.2 0-.4.2-.3.4l.1.6c0 .2.1.3.4.3.3 0 .6-.3.5-.7z"/></svg>